<svg width="20" height="20" viewBox="0 0 20 20" fill="none" xmlns="http://www.w3.org/2000/svg">
<path d="M7.86532 13.4663H6.26532V8.26733H7.86532V13.4663ZM7.06532 7.60033C6.48832 7.60033 6.19932 7.33333 6.19932 6.80033C6.19753 6.69337 6.21896 6.58729 6.26212 6.4894C6.30527 6.39151 6.36914 6.30415 6.44932 6.23333C6.61607 6.07776 6.83735 5.99406 7.06532 6.00033C7.64232 6.00033 7.93132 6.26833 7.93132 6.80133C7.93132 7.33433 7.64332 7.60033 7.06532 7.60033ZM13.7993 13.4663H12.1663V10.5663C12.1663 9.81133 11.8983 9.43333 11.3653 9.43333C10.9433 9.43333 10.6663 9.64433 10.5313 10.0663C10.4883 10.1333 10.4653 10.2673 10.4653 10.4663V13.4663H8.83232V9.93333C8.83232 9.13333 8.82032 8.57833 8.79932 8.26733H10.1993L10.2993 8.96633C10.6663 8.41033 11.1993 8.13333 11.9323 8.13333C12.4893 8.13333 12.9383 8.32733 13.2823 8.71633C13.6283 9.10533 13.8003 9.66633 13.8003 10.4003V13.4663H13.7993Z" fill="black"/>
<circle cx="10" cy="10" r="9.35" stroke="black" stroke-width="1.3"/>
</svg>
